<svg id="Layer_1" enable-background="new 0 0 50 50" height="512" viewBox="0 0 50 50" width="512" xmlns="http://www.w3.org/2000/svg"><g><path d="m46 6.5h-42c-1.379 0-2.5 1.122-2.5 2.5v2.545c0 1.378 1.121 2.5 2.5 2.5h42c1.379 0 2.5-1.122 2.5-2.5v-2.545c0-1.378-1.121-2.5-2.5-2.5zm1.5 5.045c0 .827-.673 1.5-1.5 1.5h-42c-.827 0-1.5-.673-1.5-1.5v-2.545c0-.827.673-1.5 1.5-1.5h42c.827 0 1.5.673 1.5 1.5z"/><path d="m46 21.227h-42c-1.379 0-2.5 1.122-2.5 2.5v2.546c0 1.378 1.121 2.5 2.5 2.5h42c1.379 0 2.5-1.122 2.5-2.5v-2.546c0-1.378-1.121-2.5-2.5-2.5zm1.5 5.046c0 .827-.673 1.5-1.5 1.5h-42c-.827 0-1.5-.673-1.5-1.5v-2.546c0-.827.673-1.5 1.5-1.5h42c.827 0 1.5.673 1.5 1.5z"/><path d="m46 35.955h-42c-1.379 0-2.5 1.122-2.5 2.5v2.545c0 1.378 1.121 2.5 2.5 2.5h42c1.379 0 2.5-1.122 2.5-2.5v-2.545c0-1.379-1.121-2.5-2.5-2.5zm1.5 5.045c0 .827-.673 1.5-1.5 1.5h-42c-.827 0-1.5-.673-1.5-1.5v-2.545c0-.827.673-1.5 1.5-1.5h42c.827 0 1.5.673 1.5 1.5z"/></g></svg>